<?xml version="1.0" encoding="utf-8"?>
<!-- Svg Vector Icons : http://www.onlinewebfonts.com/icon -->
<!DOCTYPE svg PUBLIC "-//W3C//DTD SVG 1.1//EN" "http://www.w3.org/Graphics/SVG/1.1/DTD/svg11.dtd">
<svg version="1.1" xmlns="http://www.w3.org/2000/svg" xmlns:xlink="http://www.w3.org/1999/xlink" x="0px" y="0px" viewBox="0 0 1000 1000" enable-background="new 0 0 1000 1000" xml:space="preserve">
<metadata> Svg Vector Icons : http://www.onlinewebfonts.com/icon </metadata>
<g><path d="M908.7,772.9l-216.5-84.4c0,0-41.3-16-57.3-31.8c-10.3-10.1-9.6-34-0.4-64.6c9.1-30.5,120.1-154.7,120.1-267.4C754.5,150.7,640,9.5,498.8,9.5c-141.2,0-255.6,141.2-255.6,315.3c0,108,98.9,236.7,111.1,260.1c12.2,23.4,9.2,59.1-0.4,69.9c-14.5,16.2-67.4,32.5-67.4,32.5l-195.2,87C45.7,790.6,10,833.6,10,882.1v23c0,53,43,85.4,95.9,85.4h327.4h112.2h348.7c52.9,0,95.9-32.4,95.9-85.4v-23C990,833.6,954.3,789.3,908.7,772.9L908.7,772.9L908.7,772.9z"/></g>
</svg>